<?xml version="1.0" encoding="UTF-8"?>
<svg id="Layer_1" data-name="Layer 1" xmlns="http://www.w3.org/2000/svg" viewBox="0 0 32 32">
  <defs>
    <style>
      .cls-1 {
        fill: #000;
        stroke-width: 0px;
      }
    </style>
  </defs>
  <path class="cls-1" d="M12.04,11.308v-1.544c0-1.263-.197-2.242-.592-2.938-.394-.695-.927-1.192-1.598-1.49-.672-.297-1.43-.479-2.274-.543-.845-.064-1.721-.096-2.63-.096v3.57c.941,0,1.574.145,1.9.435.325.29.488.853.488,1.688v2.124c0,.434.099.88.296,1.339.196.458.559.878,1.085,1.261.423.306.996.563,1.707.776v.051c-.711.213-1.284.47-1.707.776-.526.381-.889.801-1.085,1.26-.197.458-.296.904-.296,1.339v2.123c0,.837-.163,1.399-.488,1.689-.326.289-.959.434-1.9.434v3.571c.909,0,1.785-.032,2.63-.097s1.603-.245,2.274-.543c.671-.298,1.204-.794,1.598-1.49.395-.695.592-1.674.592-2.937v-1.545c0-.86.198-1.493.597-1.899s1.107-.609,2.129-.609v-4.197c-1.021,0-1.73-.203-2.129-.609-.398-.406-.597-1.039-.597-1.9Z"/>
  <rect class="cls-1" x="14.841" y="23.588" width="12.184" height="3.45"/>
</svg>