<?xml version="1.0" encoding="UTF-8"?>
<svg id="Layer_1" data-name="Layer 1" xmlns="http://www.w3.org/2000/svg" viewBox="0 0 32 32">
  <defs>
    <style>
      .cls-1 {
        fill: #fff;
      }

      .cls-1, .cls-2 {
        stroke-width: 0px;
      }

      .cls-2 {
        fill: #0866ff;
      }
    </style>
  </defs>
  <g id="Logo">
    <path id="Initiator" class="cls-2" d="M28.32,16c0-6.804-5.516-12.32-12.32-12.32S3.68,9.196,3.68,16c0,5.778,3.978,10.626,9.344,11.957v-8.193h-2.541v-3.765h2.541v-1.622c0-4.193,1.898-6.137,6.015-6.137.781,0,2.127.153,2.678.306v3.413c-.291-.031-.796-.046-1.423-.046-2.02,0-2.801.765-2.801,2.755v1.331h4.024l-.691,3.765h-3.333v8.465c6.1-.737,10.828-5.931,10.828-12.23Z"/>
    <path id="F" class="cls-1" d="M20.825,19.765l.691-3.765h-4.024v-1.331c0-1.99.781-2.755,2.801-2.755.627,0,1.133.015,1.423.046v-3.413c-.551-.153-1.898-.306-2.678-.306-4.117,0-6.015,1.944-6.015,6.137v1.622h-2.541v3.765h2.541v8.193c.953.236,1.95.363,2.976.363.505,0,1.003-.031,1.493-.09v-8.465h3.333Z"/>
  </g>
</svg>