<?xml version="1.0" encoding="UTF-8"?>
<svg id="Layer_1" data-name="Layer 1" xmlns="http://www.w3.org/2000/svg" viewBox="0 0 32 32">
  <defs>
    <style>
      .cls-1 {
        fill: #34a853;
      }

      .cls-1, .cls-2, .cls-3, .cls-4 {
        stroke-width: 0px;
      }

      .cls-2 {
        fill: #4285f4;
      }

      .cls-3 {
        fill: #fbbc04;
      }

      .cls-4 {
        fill: #e94235;
      }
    </style>
  </defs>
  <path class="cls-2" d="M27.908,16.281c0-.875-.079-1.717-.224-2.525h-11.625v4.774h6.643c-.286,1.543-1.156,2.85-2.463,3.725v3.097h3.989c2.334-2.149,3.68-5.313,3.68-9.072Z"/>
  <path class="cls-1" d="M16.059,28.343c3.333,0,6.126-1.105,8.169-2.99l-3.989-3.097c-1.105.741-2.519,1.178-4.18,1.178-3.215,0-5.936-2.171-6.906-5.089h-4.124v3.198c2.031,4.034,6.205,6.8,11.03,6.8Z"/>
  <path class="cls-3" d="M9.153,18.345c-.247-.741-.387-1.532-.387-2.345s.14-1.605.387-2.345v-3.198h-4.124c-.836,1.666-1.313,3.551-1.313,5.543s.477,3.877,1.313,5.543l4.124-3.198Z"/>
  <path class="cls-4" d="M16.059,8.566c1.812,0,3.439.623,4.718,1.846l3.54-3.54c-2.138-1.992-4.932-3.215-8.258-3.215-4.825,0-8.999,2.766-11.03,6.8l4.124,3.198c.971-2.917,3.692-5.089,6.906-5.089Z"/>
</svg>