<?xml version="1.0" encoding="UTF-8"?>
<svg id="Layer_1" data-name="Layer 1" xmlns="http://www.w3.org/2000/svg" viewBox="0 0 32 32">
  <defs>
    <style>
      .cls-1 {
        fill: none;
      }

      .cls-1, .cls-2 {
        stroke-width: 0px;
      }

      .cls-2 {
        fill: #000;
      }
    </style>
  </defs>
  <circle class="cls-1" cx="16" cy="16" r="16" transform="translate(-.177 .179) rotate(-.637)"/>
  <g>
    <path class="cls-2" d="M21.814,13.228c.239.5.417,1.034.521,1.595l5.573-1.811c-.137-.548-.305-1.082-.512-1.598h0s-5.582,1.814-5.582,1.814Z"/>
    <path class="cls-2" d="M17.832,9.821c.545.161,1.057.395,1.531.686l2.388-5.364c-.492-.261-1.008-.481-1.536-.675l-2.383,5.352Z"/>
    <path class="cls-2" d="M21.309,12.347h0l7.121-6.412c-.353-.435-.723-.855-1.119-1.25l-7.127,6.417c.426.365.805.782,1.124,1.245Z"/>
    <path class="cls-2" d="M15.999,22.447h0c-3.561,0-6.448-2.885-6.448-6.447,0-1.836.771-3.489,2.003-4.663l-4.027-4.225c-2.348,2.238-3.818,5.388-3.818,8.889,0,6.787,5.502,12.289,12.289,12.289,4.903,0,9.123-2.879,11.095-7.032l-5.274-2.499c-1.034,2.179-3.249,3.689-5.821,3.689Z"/>
    <path class="cls-2" d="M16.839,9.613V.042C16.559.028,16.283,0,16,0s-.559.028-.839.042v9.571c.275-.036.554-.06.839-.06s.564.025.839.06Z"/>
    <path class="cls-2" d="M31.958,16.834l-9.519-1c.002.056.008.11.008.166,0,.518-.068,1.019-.183,1.502l9.521,1.001c.086-.548.144-1.104.173-1.668Z"/>
    <path class="cls-2" d="M12.636,10.507c.474-.291.987-.525,1.531-.686h0L10.273,1.074c-.525.202-1.037.427-1.534.681l3.896,8.752Z"/>
  </g>
</svg>