<?xml version="1.0" encoding="UTF-8"?>
<svg id="Layer_1" data-name="Layer 1" xmlns="http://www.w3.org/2000/svg" viewBox="0 0 32 32">
  <defs>
    <style>
      .cls-1 {
        fill: #000;
        stroke-width: 0px;
      }
    </style>
  </defs>
  <path class="cls-1" d="M19.642,21.32h0s3.889,4.32,3.889,4.32c.441-.346.859-.719,1.248-1.121l-3.893-4.323c-.365.426-.782.805-1.245,1.124Z"/>
  <path class="cls-1" d="M28.188,15.172h-5.813c.036.275.06.554.06.839s-.025.564-.06.839h5.813c.019-.278.042-.556.042-.839s-.023-.561-.042-.839Z"/>
  <path class="cls-1" d="M22.168,14.178h0s5.308-2.363,5.308-2.363c-.193-.529-.413-1.045-.674-1.537l-5.32,2.369c.291.474.525.987.686,1.531Z"/>
  <path class="cls-1" d="M21.482,19.375l5.321,2.369c.261-.492.481-1.008.674-1.536l-5.309-2.363c-.161.545-.395,1.057-.686,1.531Z"/>
  <path class="cls-1" d="M12.358,21.322c-1.696-1.16-2.816-3.101-2.816-5.311h0c0-3.56,2.886-6.447,6.448-6.447,1.836,0,3.489.771,4.663,2.003l4.19-3.994c-2.229-2.338-5.367-3.803-8.854-3.803-6.761,0-12.242,5.481-12.242,12.242,0,3.919,1.849,7.398,4.716,9.635l3.894-4.324Z"/>
</svg>