<?xml version="1.0" encoding="UTF-8"?>
<svg id="Layer_1" data-name="Layer 1" xmlns="http://www.w3.org/2000/svg" version="1.1" viewBox="0 0 241.8 241.8">
  <defs>
    <style>
      .cls-1 {
        fill: #000;
      }

      .cls-1, .cls-2 {
        stroke-width: 0px;
      }

      .cls-2 {
        fill: #fff;
      }
    </style>
  </defs>
  <path id="kiki-outline-form" class="cls-2" d="M159,239.9c-6.3,0-12.3-3.3-15.6-9l-29.3-50.7-87.2,44.2c-2.6,1.3-5.4,1.9-8.1,1.9-4.9,0-9.8-2-13.3-5.8-5.5-5.9-6.3-14.8-2.1-21.6l43.4-70.3-36.4-19.3c-6.9-3.7-10.7-11.4-9.3-19.2,1.4-7.7,7.7-13.6,15.5-14.6l40.5-5-19.8-41.1c-3.5-7.3-1.7-16,4.3-21.3,3.4-3,7.6-4.5,11.9-4.5s6.9,1,9.9,2.9l70.9,46.5L196.6,5.7c3.2-2.4,7.1-3.7,10.9-3.7s7.3,1.1,10.5,3.4c6.4,4.6,9.1,12.9,6.6,20.4l-29,86.5,35.2,16.4c6.8,3.2,10.9,10.2,10.3,17.7s-5.7,13.8-12.9,15.9l-47.9,14.1-3.3,46.9c-.6,7.9-6.2,14.5-13.9,16.3-1.3.3-2.7.5-4,.5Z"/>
  <polygon id="kiki-shape" class="cls-1" points="18.9 93.5 84.3 85.5 53.6 21.7 135.1 75.2 207.5 20 173.4 121.7 223.1 144.9 163.3 162.5 159 221.9 121.2 156.4 18.8 208.4 72.3 121.7 18.9 93.5"/>
</svg>