<?xml version="1.0" encoding="UTF-8"?><svg id="Layer_2" xmlns="http://www.w3.org/2000/svg" viewBox="0 0 625.02 108.57"><g id="Layer_5"><path d="M156.47,47.97l-19.99-29.53-2.75,1.79,20.05,29.61c.85-.69,1.75-1.31,2.69-1.88ZM97,50.43c2.57,3.36,3.86,8.21,3.86,14.54v41.83h17.65v-43.61c0-7.12-1.14-13.13-3.41-18.02-2.28-4.89-5.59-8.6-9.94-11.12-4.35-2.52-9.64-3.78-15.87-3.78-5.24,0-10.09,1.19-14.54,3.56-4.45,2.37-8.06,5.64-10.83,9.79-1.48-2.97-3.39-5.44-5.71-7.42-2.32-1.98-4.99-3.46-8.01-4.45-3.02-.99-6.4-1.48-10.16-1.48-5.04,0-9.52,1.06-13.42,3.19-3.59,1.96-6.53,4.61-8.82,7.95v-9.37H0v74.77h17.8v-39.75c0-4.65.74-8.58,2.22-11.79,1.48-3.21,3.53-5.66,6.16-7.34,2.62-1.68,5.56-2.52,8.82-2.52,5.14,0,9,1.68,11.57,5.04,2.57,3.36,3.86,8.21,3.86,14.54v41.83h17.65v-39.75c0-4.65.74-8.58,2.22-11.79,1.48-3.21,3.53-5.66,6.16-7.34,2.62-1.68,5.66-2.52,9.12-2.52,5.04,0,8.85,1.68,11.42,5.04ZM161.04,45.87l-11.24-25.73-3.03,1.26,11.24,25.73c.97-.49,1.99-.91,3.03-1.26ZM210.12,72.24l-18.18-2.77c-.06,1.11-.2,2.19-.41,3.25l18.04,2.75.55-3.23ZM190,77.56l12.41,4.04,1.07-3.1-12.38-4.03c-.3,1.06-.67,2.1-1.1,3.09ZM198.81,40.56l-13.42,11.28c.76.79,1.46,1.63,2.11,2.51l13.38-11.25-2.07-2.55ZM197.31,54.52l-1.54-2.9-7.36,4.07c.58.92,1.09,1.89,1.54,2.9l7.36-4.07ZM511.15,81.72c0,6.23,1.04,11.17,3.11,14.83,2.08,3.66,4.97,6.28,8.68,7.86,3.71,1.58,8.08,2.37,13.13,2.37h9.75v-15.13h-6.2c-3.86,0-6.6-.72-8.23-2.15-1.63-1.43-2.45-4.03-2.45-7.79v-34.71h16.87v-14.98h-16.87V12.31h-15.72l-.08,19.73h-12.75v14.98h10.75v34.71ZM204.4,67.41l-.07-3.28-12.61.49c.16,1.07.25,2.16.26,3.27l12.42-.48ZM414.6,0h-17.8v106.79h17.8V0ZM168.5,44.65c.8,0,1.59.04,2.38.12l-.07-23.37-3.28-.04.07,23.32c.3-.01.6-.02.9-.02ZM179.15,31.61l-3.18-.83-3.45,14.22c1.09.19,2.15.45,3.19.78l3.44-14.18ZM165.84,44.81l-6.93-37.94-3.24.54,6.94,37.99c1.05-.27,2.13-.47,3.23-.59ZM184.13,50.62l18.26-22.43-2.51-2.11-18.34,22.53c.91.61,1.78,1.28,2.59,2.01ZM191.42,63.07l17.89-5.69-.94-3.14-17.88,5.69c.38,1.02.69,2.07.93,3.15ZM180.2,47.78l7.21-15.92-2.97-1.4-7.19,15.88c1.02.41,2.01.89,2.95,1.44ZM478.93,33.89c-4.95-2.42-10.93-3.63-17.95-3.63-5.84,0-11.2,1.06-16.09,3.19-4.89,2.13-8.82,5.09-11.79,8.9-2.97,3.81-4.75,8.38-5.34,13.72h17.5c.69-3.76,2.47-6.55,5.34-8.38,2.87-1.83,6.33-2.74,10.38-2.74,3.56,0,6.48.64,8.75,1.93,2.27,1.29,3.95,3.24,5.04,5.86,1.09,2.62,1.63,5.91,1.63,9.86h-18.84c-6.92,0-12.76.96-17.5,2.89s-8.33,4.62-10.75,8.08c-2.42,3.46-3.63,7.56-3.63,12.31,0,4.06.99,7.81,2.97,11.27,1.98,3.46,4.99,6.23,9.05,8.31,4.05,2.08,9.14,3.11,15.28,3.11,3.16,0,6.01-.35,8.53-1.04,2.52-.69,4.77-1.65,6.75-2.89,1.98-1.23,3.73-2.69,5.27-4.38,1.53-1.68,2.79-3.51,3.78-5.48v12h1.78s15.13,0,15.13,0v-46.27c0-6.33-1.31-11.74-3.93-16.24-2.62-4.5-6.4-7.96-11.35-10.38ZM475.96,74.46c-.3,2.67-.89,5.19-1.78,7.56-.89,2.37-2.15,4.52-3.78,6.45-1.63,1.93-3.56,3.41-5.78,4.45-2.22,1.04-4.77,1.56-7.64,1.56-2.57,0-4.8-.39-6.67-1.19-1.88-.79-3.31-1.93-4.3-3.41-.99-1.48-1.48-3.26-1.48-5.34s.49-3.9,1.48-5.49c.99-1.58,2.62-2.79,4.89-3.63,2.27-.84,5.14-1.26,8.6-1.26h16.46v.3ZM364.55,71.93c0,4.65-.82,8.58-2.45,11.79-1.63,3.21-3.86,5.66-6.67,7.34-2.82,1.68-6.01,2.52-9.57,2.52-5.54,0-9.67-1.65-12.38-4.97-2.72-3.31-4.08-8.18-4.08-14.61v-41.97h-17.8v43.75c0,7.22,1.14,13.27,3.41,18.17,2.27,4.89,5.56,8.55,9.86,10.98,4.3,2.42,9.47,3.63,15.5,3.63s10.75-1.29,15.05-3.86c4.29-2.56,7.57-6.02,9.85-10.35v12.43h17.07V32.04h-17.8v39.9ZM620.58,48.28c-2.97-5.49-7.17-9.86-12.61-13.13-5.44-3.26-11.82-4.89-19.13-4.89s-14.12,1.68-19.8,5.04c-5.69,3.36-10.09,8.01-13.2,13.94-3.11,5.93-4.67,12.85-4.67,20.76s1.58,14.34,4.75,20.17c3.16,5.84,7.56,10.36,13.2,13.57,5.64,3.21,12.16,4.82,19.58,4.82,5.83,0,11.07-1.06,15.72-3.19,4.65-2.12,8.55-5.04,11.72-8.75,3.16-3.71,5.44-7.88,6.82-12.53h-18.09c-1.29,2.97-3.29,5.34-6.01,7.12-2.72,1.78-6.16,2.67-10.31,2.67-3.76,0-7.14-.86-10.16-2.6-3.02-1.73-5.39-4.28-7.12-7.64-1.47-2.85-2.3-6.16-2.53-9.94h56c.2-1.28.3-2.52.3-3.71v-3.26c0-6.82-1.48-12.98-4.45-18.47ZM569.01,62.29c.41-2.85,1.18-5.35,2.33-7.49,1.78-3.31,4.2-5.81,7.27-7.49,3.06-1.68,6.43-2.52,10.09-2.52,5.14,0,9.44,1.56,12.9,4.67,3.46,3.11,5.29,7.39,5.49,12.83h-38.07ZM188.69,80.09c-.12.21-.25.41-.38.62-.15.24-.31.47-.47.71-4.23,6.15-11.3,10.18-19.33,10.18-12.96,0-23.47-10.51-23.47-23.47,0-6.71,2.82-12.77,7.34-17.04h0c.05-.06.1-.11.16-.16l-21.28-22.83-2.44,2.2,10.17,10.92c-6.49,7.1-10.46,16.54-10.46,26.92,0,22.08,17.9,39.98,39.98,39.98,14.4,0,27.01-7.61,34.04-19.03l8.5,4.11,1.48-2.93-23.23-11.23c-.19.36-.4.71-.61,1.06ZM279.53,42.42c-2.47-3.86-5.81-6.85-10.01-8.97-4.2-2.12-9.12-3.19-14.76-3.19-6.92,0-13.13,1.71-18.61,5.12-5.49,3.41-9.77,8.06-12.83,13.94-3.07,5.88-4.6,12.58-4.6,20.1s1.51,14.24,4.52,20.17c3.02,5.93,7.24,10.58,12.68,13.94,5.44,3.36,11.62,5.04,18.54,5.04,4.25,0,7.96-.59,11.12-1.78,3.16-1.19,5.88-2.74,8.16-4.67,2.27-1.93,4.2-3.98,5.78-6.15v10.82h17.8V0h-17.8v42.42ZM277.01,81.72c-1.78,3.56-4.3,6.35-7.56,8.38-3.26,2.03-7.02,3.04-11.27,3.04s-7.71-1.01-10.98-3.04c-3.26-2.03-5.81-4.82-7.64-8.38-1.83-3.56-2.74-7.66-2.74-12.31s.91-8.75,2.74-12.31c1.83-3.56,4.38-6.33,7.64-8.31,3.26-1.98,6.92-2.97,10.98-2.97s8.01.99,11.27,2.97c3.26,1.98,5.78,4.75,7.56,8.31,1.78,3.56,2.67,7.66,2.67,12.31s-.89,8.75-2.67,12.31Z"/></g></svg>